<svg width="89" height="85" viewBox="0 0 89 85" fill="none" xmlns="http://www.w3.org/2000/svg">
<g filter="url(#filter0_d_137_529)">
<ellipse cx="43.5" cy="38.5" rx="40.5" ry="38.5" fill="#B80000"/>
</g>
<path fill-rule="evenodd" clip-rule="evenodd" d="M31.6904 56.0458C31.6904 54.3816 33.0009 53.0303 34.6167 53.0303H36.0554C36.7021 53.0292 37.3332 53.2352 37.8613 53.62C38.3895 54.0047 38.7887 54.5492 39.0036 55.1781C39.059 55.3396 39.083 55.5109 39.0742 55.682C39.0654 55.8531 39.0239 56.0208 38.9523 56.1754C38.8806 56.33 38.7801 56.4686 38.6566 56.5832C38.533 56.6977 38.3887 56.7861 38.232 56.8432C37.9155 56.9585 37.5676 56.9395 37.2647 56.7902C37.1148 56.7164 36.9804 56.6128 36.8693 56.4853C36.7581 56.3579 36.6724 56.2092 36.6171 56.0476C36.5766 55.9275 36.5006 55.8235 36.3999 55.7503C36.2992 55.677 36.1787 55.638 36.0554 55.6389H34.6167C34.5197 55.6401 34.4265 55.6778 34.3548 55.7451C34.283 55.8123 34.2376 55.9043 34.2272 56.0038C34.2168 56.1032 34.2421 56.2031 34.2984 56.2846C34.3546 56.366 34.4379 56.4234 34.5324 56.4458L36.725 56.9397C37.4795 57.1082 38.1468 57.5587 38.5983 58.2043C39.0499 58.8499 39.2537 59.6449 39.1705 60.4363C39.0874 61.2276 38.7231 61.9592 38.1479 62.4901C37.5728 63.021 36.8274 63.3136 36.0554 63.3116H34.8157C34.1691 63.3122 33.5383 63.1058 33.0105 62.7207C32.4826 62.3357 32.0838 61.791 31.8692 61.1621C31.8107 60.9999 31.784 60.8273 31.7908 60.6544C31.7976 60.4814 31.8377 60.3116 31.9088 60.1548C31.9799 59.998 32.0806 59.8574 32.2049 59.7411C32.3292 59.6248 32.4748 59.5352 32.633 59.4775C32.7913 59.4198 32.9591 59.3952 33.1267 59.405C33.2943 59.4149 33.4583 59.459 33.6092 59.5349C33.7601 59.6107 33.8948 59.7168 34.0055 59.8469C34.1162 59.977 34.2007 60.1285 34.2541 60.2926C34.3367 60.5343 34.5577 60.703 34.8157 60.703H36.0554C36.204 60.7058 36.3482 60.6511 36.4597 60.5498C36.5712 60.4485 36.6419 60.3079 36.658 60.1556C36.674 60.0033 36.6343 59.8502 36.5465 59.7266C36.4587 59.603 36.3293 59.5177 36.1836 59.4874L33.991 58.9935C33.339 58.8464 32.7554 58.4738 32.3369 57.9377C31.9185 57.4015 31.6904 56.734 31.6904 56.0458ZM47.8129 56.0458C47.8129 54.3816 49.1217 53.0303 50.7375 53.0303H52.1779C52.8243 53.0295 53.4549 53.2358 53.9828 53.6205C54.5106 54.0052 54.9095 54.5495 55.1244 55.1781C55.1829 55.3403 55.2096 55.5129 55.2028 55.6858C55.196 55.8587 55.1559 56.0286 55.0848 56.1854C55.0137 56.3421 54.913 56.4828 54.7887 56.5991C54.6644 56.7153 54.5188 56.8049 54.3606 56.8626C54.2023 56.9203 54.0345 56.945 53.8669 56.9351C53.6993 56.9253 53.5353 56.8812 53.3844 56.8053C53.2335 56.7294 53.0988 56.6234 52.9881 56.4933C52.8774 56.3632 52.7929 56.2117 52.7395 56.0476C52.699 55.9275 52.6231 55.8235 52.5223 55.7503C52.4216 55.677 52.3011 55.638 52.1779 55.6389H50.7375C50.6405 55.6401 50.5473 55.6778 50.4755 55.7451C50.4037 55.8123 50.3583 55.9043 50.348 56.0038C50.3376 56.1032 50.3629 56.2031 50.4191 56.2846C50.4754 56.366 50.5586 56.4234 50.6531 56.4458L52.8458 56.9397C53.6001 57.1082 54.2673 57.5585 54.7188 58.2039C55.1704 58.8493 55.3743 59.6442 55.2914 60.4354C55.2084 61.2266 54.8445 61.9582 54.2696 62.4892C53.6948 63.0202 52.9497 63.3132 52.1779 63.3116H50.9382C50.2913 63.3126 49.6601 63.1063 49.1319 62.7212C48.6037 62.3361 48.2047 61.7913 47.99 61.1621C47.9346 61.0005 47.9106 60.8293 47.9194 60.6582C47.9283 60.4871 47.9697 60.3194 48.0413 60.1648C48.113 60.0101 48.2135 59.8716 48.337 59.757C48.4606 59.6424 48.6049 59.5541 48.7616 59.497C49.0781 59.3817 49.426 59.4007 49.7289 59.5499C50.0317 59.6991 50.2647 59.9663 50.3765 60.2926C50.4575 60.5343 50.6801 60.703 50.9365 60.703H52.1779C52.3263 60.7053 52.4702 60.6503 52.5813 60.5489C52.6925 60.4474 52.7628 60.3069 52.7787 60.1547C52.7945 60.0025 52.7547 59.8497 52.6669 59.7263C52.5792 59.6028 52.4499 59.5177 52.3044 59.4874L50.1117 58.9935C49.4604 58.8457 48.8775 58.4728 48.4597 57.9368C48.042 57.4007 47.8143 56.7335 47.8146 56.0458M42.2824 56.2528C42.2824 55.9137 42.5489 55.6389 42.8778 55.6389H44.1192C44.4464 55.6389 44.7129 55.9137 44.7129 56.2528V60.0891C44.7129 60.2516 44.6504 60.4075 44.5391 60.5226C44.4278 60.6377 44.2768 60.7025 44.1192 60.703H42.8778C42.7199 60.703 42.5685 60.6383 42.4568 60.5232C42.3452 60.4081 42.2824 60.2519 42.2824 60.0891V56.2528ZM42.8778 53.0303C41.1524 53.0303 39.7525 54.4737 39.7525 56.2528V60.0891C39.7525 61.8682 41.1524 63.3116 42.8778 63.3116H44.1192C45.8446 63.3116 47.2428 61.8682 47.2428 60.0891V56.2528C47.2428 54.4737 45.8429 53.0303 44.1192 53.0303H42.8778Z" fill="#F5F5F5"/>
<path d="M58.0036 43.3965C57.8083 44.2673 57.3243 45.0474 56.6294 45.6113C55.8702 46.3774 54.9655 46.9858 53.968 47.4011C52.9704 47.8163 51.8999 48.0302 50.8186 48.0303H50.3133C48.0438 47.9077 45.8216 47.3362 43.7766 46.3491H43.761C43.2869 46.1294 42.7972 45.9098 42.3231 45.6422C39.936 44.3106 37.7465 42.6552 35.8175 40.7238C33.314 38.3842 31.2596 35.6106 29.7548 32.5387C28.9551 30.8552 28.4213 29.059 28.1723 27.2135C27.8062 25.2817 28.0264 23.2852 28.805 21.4784C29.2966 20.6633 29.8969 19.9182 30.5896 19.2635C30.9013 18.9128 31.2824 18.6299 31.709 18.4324C32.1357 18.2349 32.5987 18.1272 33.0691 18.1159C33.5807 18.1722 34.0759 18.329 34.5261 18.5772C34.9763 18.8255 35.3724 19.1602 35.6915 19.5621C36.402 20.3308 37.2694 21.1319 37.9813 21.8713L38.9607 22.8302C39.5359 23.3375 39.8919 24.0459 39.9556 24.81C39.9556 25.5106 39.696 26.1865 39.2281 26.7108C38.925 27.0775 38.6034 27.4286 38.2643 27.7626L37.9487 28.092C37.7653 28.2622 37.6254 28.4725 37.5383 28.7061C37.4606 28.936 37.4295 29.1716 37.445 29.4129C37.6953 30.0795 38.0886 30.6858 38.5954 31.1885C39.3866 32.2557 40.1763 33.1837 40.9816 34.189C42.4381 35.8714 44.1666 37.3001 46.0959 38.4161C46.2934 38.56 46.5203 38.6559 46.7613 38.6976C46.9696 38.7131 47.181 38.6822 47.3769 38.6048C47.9287 38.2816 48.4184 37.8671 48.8288 37.3783C49.3807 36.7059 50.173 36.2723 51.0393 36.1688C51.873 36.1802 52.6682 36.5194 53.2514 37.1123C53.567 37.3783 53.9136 37.7402 54.2463 38.0867L54.7189 38.5724L55.2085 39.0441L56.0464 39.8917C56.5459 40.333 57.0144 40.8047 57.4517 41.3069C57.8901 41.9101 58.0875 42.6571 58.0036 43.3965ZM52.3358 32.6331C52.0226 32.6299 51.7232 32.5047 51.5018 32.2843C51.2803 32.064 51.1545 31.7661 51.1512 31.4545C51.1529 30.5648 50.978 29.6836 50.6365 28.8613C50.2951 28.039 49.7938 27.2919 49.1615 26.6628C48.5293 26.0337 47.7784 25.535 46.9519 25.1952C46.1255 24.8555 45.2397 24.6815 44.3455 24.6831C44.0314 24.6831 43.7301 24.559 43.5079 24.3379C43.2858 24.1169 43.161 23.8171 43.161 23.5046C43.161 23.192 43.2858 22.8922 43.5079 22.6712C43.7301 22.4502 44.0314 22.326 44.3455 22.326C45.5509 22.3241 46.7448 22.559 47.8588 23.0171C48.9727 23.4752 49.9849 24.1475 50.8372 24.9956C51.6895 25.8436 52.3653 26.8507 52.8257 27.959C53.2861 29.0674 53.5222 30.2552 53.5203 31.4545C53.5207 31.6094 53.4904 31.7628 53.431 31.906C53.3716 32.0492 53.2844 32.1793 53.1743 32.2888C53.0642 32.3983 52.9335 32.4851 52.7896 32.5442C52.6457 32.6033 52.4914 32.6335 52.3358 32.6331Z" fill="#F5F5F5"/>
<path d="M57.8155 32.0825C57.5026 32.0793 57.2034 31.9543 56.982 31.7343C56.7606 31.5143 56.6346 31.2168 56.6309 30.9055C56.6334 29.3896 56.3354 27.8881 55.754 26.4869C55.1726 25.0857 54.3192 23.8123 53.2427 22.7396C52.1661 21.6669 50.8876 20.8159 49.4801 20.2354C48.0727 19.6549 46.564 19.3562 45.0404 19.3564C44.8814 19.3621 44.7228 19.3359 44.5741 19.2793C44.4255 19.2227 44.2898 19.1368 44.1752 19.0269C44.0607 18.917 43.9695 18.7852 43.9073 18.6394C43.8451 18.4937 43.813 18.3369 43.813 18.1786C43.813 18.0202 43.8451 17.8635 43.9073 17.7177C43.9695 17.572 44.0607 17.4402 44.1752 17.3302C44.2898 17.2203 44.4255 17.1345 44.5741 17.0779C44.7228 17.0213 44.8814 16.995 45.0404 17.0008C46.8749 17.0008 48.6915 17.3605 50.3861 18.0595C52.0808 18.7585 53.6204 19.7829 54.9169 21.0743C56.2133 22.3657 57.2413 23.8986 57.9419 25.5855C58.6425 27.2724 59.0021 29.0802 59 30.9055C59.0004 31.0604 58.9701 31.2138 58.9107 31.357C58.8513 31.5001 58.7641 31.6302 58.654 31.7398C58.5439 31.8493 58.4132 31.9361 58.2693 31.9952C58.1254 32.0542 57.9711 32.0829 57.8155 32.0825Z" fill="#F5F5F5"/>
<defs>
<filter id="filter0_d_137_529" x="0" y="0" width="89" height="85" filterUnits="userSpaceOnUse" color-interpolation-filters="sRGB">
<feFlood flood-opacity="0" result="BackgroundImageFix"/>
<feColorMatrix in="SourceAlpha" type="matrix" values="0 0 0 0 0 0 0 0 0 0 0 0 0 0 0 0 0 0 127 0" result="hardAlpha"/>
<feOffset dx="1" dy="4"/>
<feGaussianBlur stdDeviation="2"/>
<feComposite in2="hardAlpha" operator="out"/>
<feColorMatrix type="matrix" values="0 0 0 0 0 0 0 0 0 0 0 0 0 0 0 0 0 0 0.25 0"/>
<feBlend mode="normal" in2="BackgroundImageFix" result="effect1_dropShadow_137_529"/>
<feBlend mode="normal" in="SourceGraphic" in2="effect1_dropShadow_137_529" result="shape"/>
</filter>
</defs>
</svg>
