<svg width="31" height="47" viewBox="0 0 31 47" fill="none" xmlns="http://www.w3.org/2000/svg">
<path fill-rule="evenodd" clip-rule="evenodd" d="M3.69043 39.0458C3.69043 37.3816 5.00094 36.0303 6.61672 36.0303H8.05541C8.7021 36.0292 9.33316 36.2352 9.86132 36.62C10.3895 37.0047 10.7887 37.5492 11.0036 38.1781C11.059 38.3396 11.083 38.5109 11.0742 38.682C11.0654 38.8531 11.0239 39.0208 10.9523 39.1754C10.8806 39.33 10.7801 39.4686 10.6566 39.5832C10.533 39.6977 10.3887 39.7861 10.232 39.8432C9.91552 39.9585 9.56758 39.9395 9.26472 39.7902C9.11476 39.7164 8.98038 39.6128 8.86925 39.4853C8.75813 39.3579 8.67243 39.2092 8.61706 39.0476C8.57655 38.9275 8.50061 38.8235 8.39988 38.7503C8.29915 38.677 8.1787 38.638 8.05541 38.6389H6.61672C6.51975 38.6401 6.42654 38.6778 6.35476 38.7451C6.28297 38.8123 6.23759 38.9043 6.2272 39.0038C6.21681 39.1032 6.24213 39.2031 6.29837 39.2846C6.35462 39.366 6.43788 39.4234 6.53239 39.4458L8.725 39.9397C9.47948 40.1082 10.1468 40.5587 10.5983 41.2043C11.0499 41.8499 11.2537 42.6449 11.1705 43.4363C11.0874 44.2276 10.7231 44.9592 10.1479 45.4901C9.57277 46.021 8.82738 46.3136 8.05541 46.3116H6.81575C6.16914 46.3122 5.53831 46.1058 5.01046 45.7207C4.48261 45.3357 4.08381 44.791 3.86921 44.1621C3.81066 43.9999 3.78402 43.8273 3.79082 43.6544C3.79762 43.4814 3.83773 43.3116 3.90882 43.1548C3.97992 42.998 4.08056 42.8574 4.2049 42.7411C4.32924 42.6248 4.47477 42.5352 4.63303 42.4775C4.79129 42.4198 4.95911 42.3952 5.1267 42.405C5.29429 42.4149 5.4583 42.459 5.60918 42.5349C5.76006 42.6107 5.89479 42.7168 6.00551 42.8469C6.11623 42.977 6.20074 43.1285 6.2541 43.2926C6.33674 43.5343 6.55769 43.703 6.81575 43.703H8.05541C8.20399 43.7058 8.3482 43.6511 8.4597 43.5498C8.57119 43.4485 8.64192 43.3079 8.65798 43.1556C8.67405 43.0033 8.63428 42.8502 8.5465 42.7266C8.45872 42.603 8.32928 42.5177 8.1836 42.4874L5.99099 41.9935C5.33899 41.8464 4.75537 41.4738 4.33693 40.9377C3.91849 40.4015 3.69038 39.734 3.69043 39.0458ZM19.8129 39.0458C19.8129 37.3816 21.1217 36.0303 22.7375 36.0303H24.1779C24.8243 36.0295 25.4549 36.2358 25.9828 36.6205C26.5106 37.0052 26.9095 37.5495 27.1244 38.1781C27.1829 38.3403 27.2096 38.5129 27.2028 38.6858C27.196 38.8587 27.1559 39.0286 27.0848 39.1854C27.0137 39.3421 26.913 39.4828 26.7887 39.5991C26.6644 39.7153 26.5188 39.8049 26.3606 39.8626C26.2023 39.9203 26.0345 39.945 25.8669 39.9351C25.6993 39.9253 25.5353 39.8812 25.3844 39.8053C25.2335 39.7294 25.0988 39.6234 24.9881 39.4933C24.8774 39.3632 24.7929 39.2117 24.7395 39.0476C24.699 38.9275 24.6231 38.8235 24.5223 38.7503C24.4216 38.677 24.3011 38.638 24.1779 38.6389H22.7375C22.6405 38.6401 22.5473 38.6778 22.4755 38.7451C22.4037 38.8123 22.3583 38.9043 22.348 39.0038C22.3376 39.1032 22.3629 39.2031 22.4191 39.2846C22.4754 39.366 22.5586 39.4234 22.6531 39.4458L24.8458 39.9397C25.6001 40.1082 26.2673 40.5585 26.7188 41.2039C27.1704 41.8493 27.3743 42.6442 27.2914 43.4354C27.2084 44.2266 26.8445 44.9582 26.2696 45.4892C25.6948 46.0202 24.9497 46.3132 24.1779 46.3116H22.9382C22.2913 46.3126 21.6601 46.1063 21.1319 45.7212C20.6037 45.3361 20.2047 44.7913 19.99 44.1621C19.9346 44.0005 19.9106 43.8293 19.9194 43.6582C19.9283 43.4871 19.9697 43.3194 20.0413 43.1648C20.113 43.0101 20.2135 42.8716 20.337 42.757C20.4606 42.6424 20.6049 42.5541 20.7616 42.497C21.0781 42.3817 21.426 42.4007 21.7289 42.5499C22.0317 42.6991 22.2647 42.9663 22.3765 43.2926C22.4575 43.5343 22.6801 43.703 22.9365 43.703H24.1779C24.3263 43.7053 24.4702 43.6503 24.5813 43.5489C24.6925 43.4474 24.7628 43.3069 24.7787 43.1547C24.7945 43.0025 24.7547 42.8497 24.6669 42.7263C24.5792 42.6028 24.4499 42.5177 24.3044 42.4874L22.1117 41.9935C21.4604 41.8457 20.8775 41.4728 20.4597 40.9368C20.042 40.4007 19.8143 39.7335 19.8146 39.0458M14.2824 39.2528C14.2824 38.9137 14.5489 38.6389 14.8778 38.6389H16.1192C16.4464 38.6389 16.7129 38.9137 16.7129 39.2528V43.0891C16.7129 43.2516 16.6504 43.4075 16.5391 43.5226C16.4278 43.6377 16.2768 43.7025 16.1192 43.703H14.8778C14.7199 43.703 14.5685 43.6383 14.4568 43.5232C14.3452 43.4081 14.2824 43.2519 14.2824 43.0891V39.2528ZM14.8778 36.0303C13.1524 36.0303 11.7525 37.4737 11.7525 39.2528V43.0891C11.7525 44.8682 13.1524 46.3116 14.8778 46.3116H16.1192C17.8446 46.3116 19.2428 44.8682 19.2428 43.0891V39.2528C19.2428 37.4737 17.8429 36.0303 16.1192 36.0303H14.8778Z" fill="#F5F5F5"/>
<path d="M30.0036 26.3965C29.8083 27.2673 29.3243 28.0474 28.6294 28.6113C27.8702 29.3774 26.9655 29.9858 25.968 30.4011C24.9704 30.8164 23.8999 31.0303 22.8186 31.0303H22.3133C20.0438 30.9077 17.8216 30.3362 15.7766 29.3491H15.761C15.2869 29.1295 14.7972 28.9098 14.3231 28.6423C11.936 27.3106 9.74652 25.6553 7.81746 23.7238C5.31399 21.3842 3.25961 18.6106 1.75483 15.5388C0.955107 13.8553 0.421323 12.059 0.172331 10.2135C-0.193818 8.28172 0.0264357 6.2852 0.80502 4.47841C1.29655 3.66328 1.89688 2.91821 2.58961 2.26356C2.90131 1.91285 3.2824 1.62991 3.70903 1.43244C4.13566 1.23496 4.59866 1.12721 5.06907 1.11592C5.58066 1.17217 6.07593 1.32898 6.52612 1.57723C6.97631 1.82549 7.37245 2.16024 7.69154 2.56207C8.40196 3.33077 9.26938 4.13196 9.98135 4.87127L10.9607 5.83021C11.5359 6.33753 11.8919 7.04591 11.9556 7.80997C11.9556 8.51062 11.696 9.18652 11.2281 9.71084C10.925 10.0775 10.6034 10.4286 10.2643 10.7626L9.9487 11.092C9.76527 11.2622 9.62536 11.4725 9.53831 11.7061C9.46058 11.936 9.42949 12.1716 9.44504 12.4129C9.69531 13.0795 10.0886 13.6858 10.5954 14.1885C11.3866 15.2557 12.1763 16.1837 12.9816 17.1891C14.4381 18.8714 16.1666 20.3001 18.0959 21.4162C18.2934 21.56 18.5203 21.6559 18.7613 21.6976C18.9696 21.7131 19.181 21.6822 19.3769 21.6048C19.9287 21.2816 20.4184 20.8671 20.8288 20.3783C21.3807 19.7059 22.173 19.2724 23.0393 19.1688C23.873 19.1802 24.6682 19.5194 25.2514 20.1123C25.567 20.3783 25.9136 20.7403 26.2463 21.0867L26.7189 21.5724L27.2085 22.0441L28.0464 22.8917C28.5459 23.333 29.0144 23.8047 29.4517 24.3069C29.8901 24.9101 30.0875 25.6572 30.0036 26.3965ZM24.3358 15.6331C24.0226 15.6299 23.7232 15.5047 23.5018 15.2843C23.2803 15.064 23.1545 14.7661 23.1512 14.4545C23.1529 13.5648 22.978 12.6836 22.6365 11.8613C22.2951 11.039 21.7938 10.2919 21.1615 9.6628C20.5293 9.03369 19.7784 8.53498 18.9519 8.19526C18.1255 7.85555 17.2397 7.68151 16.3455 7.68314C16.0314 7.68314 15.7301 7.55897 15.5079 7.33795C15.2858 7.11692 15.161 6.81715 15.161 6.50457C15.161 6.19199 15.2858 5.89222 15.5079 5.67119C15.7301 5.45017 16.0314 5.326 16.3455 5.326C17.5509 5.32416 18.7448 5.55903 19.8588 6.01713C20.9727 6.47523 21.9849 7.14756 22.8372 7.99559C23.6895 8.84362 24.3653 9.85067 24.8257 10.959C25.2861 12.0674 25.5222 13.2552 25.5203 14.4545C25.5207 14.6094 25.4904 14.7629 25.431 14.906C25.3716 15.0492 25.2844 15.1793 25.1743 15.2888C25.0642 15.3983 24.9335 15.4851 24.7896 15.5442C24.6457 15.6033 24.4914 15.6335 24.3358 15.6331Z" fill="#F5F5F5"/>
<path d="M29.815 15.0825C29.5021 15.0793 29.2029 14.9543 28.9815 14.7343C28.7601 14.5143 28.6341 14.2168 28.6304 13.9055C28.6329 12.3896 28.3349 10.8881 27.7535 9.48686C27.1721 8.08567 26.3187 6.8123 25.2422 5.7396C24.1656 4.6669 22.8871 3.81594 21.4796 3.23541C20.0722 2.65488 18.5635 2.35617 17.0399 2.35637C16.8809 2.36211 16.7223 2.33589 16.5736 2.27928C16.425 2.22268 16.2893 2.13684 16.1748 2.02691C16.0602 1.91697 15.9691 1.78519 15.9068 1.63944C15.8446 1.49368 15.8125 1.33694 15.8125 1.17857C15.8125 1.02021 15.8446 0.863466 15.9068 0.71771C15.9691 0.571954 16.0602 0.440173 16.1748 0.330238C16.2893 0.220303 16.425 0.134469 16.5736 0.0778625C16.7223 0.0212558 16.8809 -0.00496267 17.0399 0.000773381C18.8745 0.00077225 20.691 0.36054 22.3856 1.05951C24.0803 1.75847 25.6199 2.78293 26.9164 4.0743C28.2128 5.36567 29.2408 6.89863 29.9414 8.58554C30.642 10.2724 31.0016 12.0802 30.9995 13.9055C30.9999 14.0603 30.9696 14.2138 30.9102 14.357C30.8508 14.5001 30.7636 14.6302 30.6535 14.7398C30.5434 14.8493 30.4127 14.9361 30.2688 14.9952C30.1249 15.0542 29.9707 15.0829 29.815 15.0825Z" fill="#F5F5F5"/>
</svg>
